<svg xmlns="http://www.w3.org/2000/svg" xmlns:svg="http://www.w3.org/2000/svg" id="svg12" width="64" height="64" version="1.1" viewBox="0 0 64 64"><metadata id="metadata18"/><g id="g10" transform="matrix(0.64922356,0,0,0.64922356,-12.698384,-608.22712)"><g id="g5331" transform="matrix(1.1681947,0,0,1.1681947,-6.1472773,-168.0254)"><path id="circle4" d="M 28.980469,12.279297 A 20.922528,20.922528 0 0 0 8.0585938,33.201172 20.922528,20.922528 0 0 0 28.980469,54.123047 20.922528,20.922528 0 0 0 49.902344,33.201172 20.922528,20.922528 0 0 0 28.980469,12.279297 Z m -2.429688,7.808594 h 4.859375 v 10.703125 h 10.66211 v 4.820312 H 31.410156 V 46.314453 H 26.550781 V 35.611328 H 15.888672 v -4.820312 h 10.662109 z" transform="matrix(1.5403015,0,0,1.5403015,19.559339,936.85312)" style="fill:#191919;fill-opacity:1;stroke-width:.64922357"/></g></g></svg>